<?xml version="1.0" standalone="no"?>
<!DOCTYPE svg PUBLIC "-//W3C//DTD SVG 20010904//EN"
 "http://www.w3.org/TR/2001/REC-SVG-20010904/DTD/svg10.dtd">
<svg version="1.0" xmlns="http://www.w3.org/2000/svg"
 width="400.000000pt" height="400.000000pt" viewBox="0 0 400.000000 400.000000"
 preserveAspectRatio="xMidYMid meet">

<g transform="translate(0.000000,400.000000) scale(0.100000,-0.100000)"
fill="#ffffff" stroke="none">
<path d="M1672 3955 c-49 -56 -69 -122 -82 -275 -5 -63 -15 -132 -21 -153 -27
-82 -135 -166 -219 -170 -45 -1 -139 53 -281 164 -136 106 -152 114 -198 100
-53 -15 -278 -206 -369 -311 -88 -103 -137 -194 -123 -231 5 -13 61 -93 125
-177 64 -84 123 -167 132 -184 26 -50 17 -86 -60 -235 -13 -25 -47 -33 -286
-67 -178 -25 -230 -41 -254 -78 -34 -52 -45 -273 -26 -513 16 -199 11 -187 84
-213 34 -12 103 -27 152 -32 238 -26 296 -44 332 -102 26 -42 72 -168 72 -197
0 -40 -42 -104 -135 -206 -51 -56 -100 -116 -109 -133 -22 -42 -20 -105 4
-151 21 -43 123 -173 163 -210 30 -28 108 -39 125 -19 14 17 42 100 37 108 -2
4 9 20 25 35 16 16 31 27 32 24 2 -2 45 -47 96 -100 91 -95 92 -97 92 -146 0
-27 -5 -54 -12 -61 -23 -23 -2 -20 30 4 29 23 32 31 32 79 l0 53 -101 106
c-93 97 -110 126 -74 126 7 0 69 -59 137 -130 89 -95 128 -130 143 -128 11 2
21 10 23 18 1 8 -52 69 -118 135 -67 66 -126 128 -132 139 -9 16 3 31 78 107
l89 89 130 0 c71 0 162 -5 200 -11 117 -17 121 -15 282 144 131 129 147 141
182 143 21 1 51 10 67 20 l28 19 -40 7 c-105 19 -101 21 -251 -128 -76 -75
-147 -139 -158 -143 -11 -3 -103 -4 -204 -1 -180 5 -183 5 -162 24 18 16 38
19 155 20 l134 1 142 142 142 142 -26 12 c-25 12 -31 8 -149 -109 l-122 -122
-95 0 -94 0 22 22 c16 17 32 22 64 20 54 -3 77 10 59 32 -8 9 -20 16 -27 16
-8 0 -14 3 -14 7 0 4 47 53 105 109 58 56 105 107 105 113 0 6 -18 30 -39 53
-46 48 -92 137 -118 228 -13 49 -18 100 -17 210 0 130 3 153 27 225 64 191
212 340 400 401 70 23 99 27 202 27 101 0 134 -5 210 -27 141 -42 191 -69 261
-141 35 -36 64 -72 64 -80 0 -26 23 -17 67 27 23 23 46 38 50 34 4 -4 -14 -28
-40 -52 -26 -25 -47 -48 -47 -51 0 -3 9 -21 21 -39 32 -53 61 -54 120 -4 65
55 77 43 16 -16 -26 -25 -47 -54 -47 -64 0 -19 53 -70 74 -70 6 0 22 7 34 16
21 15 25 15 42 -1 10 -9 21 -29 25 -43 10 -39 34 -62 66 -62 31 0 49 23 49 63
0 29 -14 43 -54 53 -16 4 -42 22 -59 40 -34 40 -52 42 -84 12 -19 -17 -23 -18
-23 -6 0 9 15 28 33 43 53 45 59 64 30 102 -40 52 -58 52 -114 -3 -27 -26 -52
-45 -56 -41 -4 4 14 29 40 55 26 26 47 52 47 58 0 15 -60 84 -73 84 -6 0 -33
-21 -59 -47 -26 -26 -50 -44 -54 -40 -3 3 7 28 24 54 26 43 33 48 61 45 24 -2
42 6 69 28 44 36 62 38 62 6 0 -25 32 -56 57 -56 21 0 53 38 53 64 0 31 -25
56 -54 56 -13 0 -29 7 -36 15 -7 8 -22 15 -33 15 -21 0 -21 0 1 22 l22 22 16
-22 c20 -30 68 -30 88 0 22 30 20 54 -5 79 -20 20 -20 22 -5 38 16 15 20 12
66 -35 27 -28 52 -64 56 -80 10 -41 23 -54 54 -54 32 0 60 27 60 58 0 27 -33
62 -58 62 -19 0 -112 88 -112 106 0 5 20 30 45 54 l45 44 23 -22 c13 -12 32
-22 44 -22 24 0 53 30 53 54 0 9 5 27 11 38 8 15 8 27 -2 44 -11 21 -10 27 12
50 l24 26 107 -113 c107 -113 108 -114 108 -163 0 -48 1 -49 19 -32 11 10 25
31 31 47 19 45 0 76 -117 188 -97 92 -114 119 -86 128 5 2 65 -52 133 -121 70
-72 128 -122 135 -119 34 12 19 38 -95 156 -66 69 -120 129 -120 134 0 5 12
21 28 36 20 19 31 24 42 17 8 -5 53 -10 99 -10 l84 0 -23 25 c-19 21 -33 25
-77 25 -29 0 -53 3 -53 7 0 4 14 21 30 38 l30 31 -62 55 c-79 68 -154 129
-195 157 -28 20 -36 21 -82 11 -62 -13 -140 -64 -252 -163 -115 -103 -136
-114 -196 -98 -83 22 -173 71 -184 100 -6 15 -23 104 -39 197 -43 261 -58 305
-111 324 -21 7 -138 11 -330 11 l-297 0 -40 -45z m1426 -976 c-2 -6 -8 -10
-13 -10 -5 0 -11 4 -13 10 -2 6 4 11 13 11 9 0 15 -5 13 -11z m-267 -252 c-1
-12 -15 -9 -19 4 -3 6 1 10 8 8 6 -3 11 -8 11 -12z m219 -32 c0 -8 -4 -15 -10
-15 -5 0 -10 7 -10 15 0 8 5 15 10 15 6 0 10 -7 10 -15z m-220 -116 c0 -5 -7
-9 -15 -9 -15 0 -20 12 -9 23 8 8 24 -1 24 -14z m98 -457 c2 -7 -3 -12 -12
-12 -9 0 -16 7 -16 16 0 17 22 14 28 -4z"/>
<path d="M3412 3244 c-42 -29 -16 -104 36 -104 8 0 27 -11 44 -25 17 -14 42
-25 59 -25 19 0 29 -5 29 -14 0 -30 20 -26 37 8 21 44 6 66 -44 66 -48 0 -73
16 -73 46 0 59 -41 81 -88 48z m48 -44 c0 -5 -4 -10 -9 -10 -6 0 -13 5 -16 10
-3 6 1 10 9 10 9 0 16 -4 16 -10z"/>
<path d="M3268 2889 c-10 -5 -20 -24 -23 -42 -9 -43 -47 -72 -76 -57 -15 8
-19 18 -15 34 7 29 -19 66 -47 66 -35 0 -67 -28 -67 -59 0 -34 17 -51 51 -51
19 0 35 -10 53 -35 15 -19 35 -35 45 -35 10 0 31 16 45 35 17 22 35 35 50 35
35 0 69 32 69 65 0 45 -45 68 -85 44z m42 -50 c0 -5 -7 -9 -15 -9 -15 0 -20
12 -9 23 8 8 24 -1 24 -14z m-200 -10 c0 -5 -7 -9 -15 -9 -15 0 -20 12 -9 23
8 8 24 -1 24 -14z"/>
<path d="M3346 2741 c-20 -21 -40 -30 -74 -34 -39 -4 -56 -13 -94 -49 -43 -40
-48 -50 -48 -87 0 -33 -6 -48 -28 -69 -133 -128 -184 -172 -201 -172 -49 0
-70 -75 -29 -104 12 -9 30 -16 40 -16 20 0 48 37 48 64 0 11 45 63 108 125
100 97 110 110 116 152 9 61 49 101 105 104 49 3 71 19 71 52 0 13 5 33 10 44
15 26 8 24 -24 -10z m-436 -472 c0 -5 -4 -9 -10 -9 -5 0 -10 7 -10 16 0 8 5
12 10 9 6 -3 10 -10 10 -16z"/>
<path d="M3222 2618 c-5 -7 -9 -28 -8 -47 1 -29 7 -37 32 -47 26 -11 35 -10
53 2 24 17 29 72 9 92 -16 16 -73 15 -86 0z m56 -47 c3 -8 -1 -12 -9 -9 -7 2
-15 10 -17 17 -3 8 1 12 9 9 7 -2 15 -10 17 -17z"/>
<path d="M2942 2574 c-42 -29 -22 -104 27 -104 34 0 61 28 61 62 0 44 -51 68
-88 42z m43 -43 c7 -12 -12 -24 -25 -16 -11 7 -4 25 10 25 5 0 11 -4 15 -9z"/>
<path d="M3310 2495 c-57 -57 -92 -85 -107 -85 -56 0 -84 -76 -38 -106 38 -25
72 -12 84 33 7 25 36 62 91 118 65 65 78 84 74 103 -4 12 -9 22 -13 22 -3 0
-44 -38 -91 -85z m-105 -154 c-9 -16 -25 -3 -18 15 4 10 9 12 15 6 6 -6 7 -15
3 -21z"/>
<path d="M3416 2390 c-40 -38 -82 -70 -93 -70 -23 0 -53 -29 -53 -51 0 -27 31
-59 56 -59 30 0 64 33 64 61 0 13 28 48 75 92 41 40 75 78 75 85 0 6 -11 12
-25 12 -17 0 -48 -22 -99 -70z m-76 -126 c0 -14 -3 -14 -15 -4 -8 7 -15 14
-15 16 0 2 7 4 15 4 8 0 15 -7 15 -16z"/>
<path d="M3570 2328 c-61 -57 -124 -107 -138 -112 -40 -13 -52 -26 -52 -56 0
-28 27 -60 51 -60 25 0 59 30 59 53 0 14 41 63 122 144 68 68 118 123 111 123
-6 0 -18 3 -26 6 -10 3 -55 -31 -127 -98z m-120 -163 c0 -8 -7 -15 -15 -15 -8
0 -15 7 -15 15 0 8 7 15 15 15 8 0 15 -7 15 -15z"/>
<path d="M3705 2255 c-82 -80 -158 -145 -167 -145 -24 0 -58 -35 -58 -60 0
-25 34 -60 58 -60 23 0 62 40 62 65 0 10 67 84 157 172 124 121 154 156 143
163 -8 5 -22 10 -30 10 -8 -1 -82 -66 -165 -145z m-155 -206 c0 -18 -2 -19
-15 -9 -8 7 -15 16 -15 21 0 5 7 9 15 9 9 0 15 -9 15 -21z"/>
<path d="M3972 2328 c-15 -15 -16 -100 0 -116 22 -22 28 -13 27 41 -1 67 -10
92 -27 75z"/>
<path d="M3182 2200 c-12 -12 -22 -32 -22 -46 0 -20 9 -29 48 -45 26 -11 56
-29 67 -39 14 -13 25 -16 35 -10 11 7 34 -9 92 -67 74 -74 78 -76 133 -81 64
-5 55 2 233 -186 109 -115 113 -119 143 -110 l31 9 -173 178 -172 177 -54 0
-54 0 -72 74 c-53 56 -80 76 -102 78 -24 2 -31 8 -33 30 -3 29 -35 58 -62 58
-9 0 -26 -9 -38 -20z m52 -41 c-8 -14 -24 -10 -24 6 0 9 6 12 15 9 8 -4 12
-10 9 -15z"/>
<path d="M3826 2197 c-21 -16 -19 -76 4 -87 8 -4 32 -15 53 -24 20 -9 43 -27
49 -41 11 -24 8 -28 -25 -56 -62 -51 -65 -65 -21 -110 21 -21 41 -39 45 -39 4
0 21 12 38 26 24 19 31 34 31 60 0 41 -9 42 -40 9 -13 -14 -27 -25 -32 -25
-18 0 -6 23 32 60 22 22 40 44 40 50 0 18 -20 53 -50 85 -15 17 -33 47 -40 68
-10 31 -16 37 -39 37 -15 0 -35 -6 -45 -13z m44 -42 c0 -8 -4 -15 -10 -15 -5
0 -10 7 -10 15 0 8 5 15 10 15 6 0 10 -7 10 -15z"/>
<path d="M2630 2188 c0 -37 24 -74 92 -144 60 -62 77 -74 104 -74 19 0 49 -11
70 -25 20 -14 50 -25 66 -25 17 0 41 -9 55 -20 16 -12 41 -20 63 -20 36 0 47
-9 204 -171 148 -154 168 -171 190 -165 15 3 26 11 26 17 0 6 -82 94 -182 195
-170 173 -184 184 -218 184 -22 0 -48 8 -63 20 -15 12 -40 20 -65 20 -26 0
-45 6 -57 20 -12 14 -31 20 -59 20 -38 0 -47 6 -133 92 -56 56 -93 86 -93 76z"/>
<path d="M3047 2122 c-34 -37 -18 -78 34 -92 23 -7 46 -22 59 -40 12 -17 29
-30 38 -30 10 0 104 -88 211 -195 165 -166 197 -195 223 -195 16 0 28 4 26 10
-5 14 -430 440 -440 440 -15 0 -45 37 -52 66 -4 16 -12 35 -18 41 -15 19 -62
16 -81 -5z m53 -37 c0 -8 -7 -15 -15 -15 -8 0 -15 7 -15 15 0 8 7 15 15 15 8
0 15 -7 15 -15z"/>
<path d="M3680 2061 c-5 -11 -10 -29 -10 -40 0 -24 37 -61 61 -61 15 0 16 -4
6 -30 -11 -29 -9 -32 78 -120 49 -50 98 -90 108 -90 30 0 77 54 77 89 0 38 -6
38 -49 1 l-34 -29 -62 67 c-61 66 -62 66 -46 94 15 25 15 28 0 40 -9 7 -20 26
-24 43 -10 43 -23 55 -61 55 -23 0 -37 -6 -44 -19z m60 -41 c0 -5 -4 -10 -9
-10 -6 0 -13 5 -16 10 -3 6 1 10 9 10 9 0 16 -4 16 -10z"/>
<path d="M2650 1937 c0 -50 28 -77 78 -77 26 0 45 -7 57 -20 13 -14 31 -20 60
-20 29 0 47 -6 60 -20 13 -14 31 -20 60 -20 37 0 47 -5 94 -55 29 -30 58 -55
65 -55 17 0 66 -53 66 -71 0 -17 180 -199 197 -199 6 0 13 8 15 18 3 11 -26
50 -79 108 -46 50 -83 96 -83 103 0 17 -70 91 -87 91 -8 0 -43 27 -77 60 -53
50 -68 60 -98 60 -20 0 -41 7 -48 15 -7 9 -29 15 -54 15 -33 0 -48 6 -67 26
-20 21 -30 24 -58 19 -29 -6 -38 -2 -67 26 l-34 33 0 -37z"/>
<path d="M3526 1851 c-10 -11 -16 -31 -14 -47 3 -27 10 -33 78 -64 8 -4 18
-22 23 -41 10 -37 22 -49 52 -49 10 0 33 -14 50 -30 28 -28 35 -30 78 -24 52
7 59 27 11 32 -36 4 -87 50 -81 74 7 27 -21 58 -53 58 -24 0 -30 6 -40 38 -23
70 -68 93 -104 53z m46 -36 c0 -5 -5 -11 -11 -13 -6 -2 -11 4 -11 13 0 9 5 15
11 13 6 -2 11 -8 11 -13z m106 -106 c-2 -6 -8 -10 -13 -10 -5 0 -11 4 -13 10
-2 6 4 11 13 11 9 0 15 -5 13 -11z"/>
<path d="M2973 1733 c-16 -10 -23 -26 -23 -47 0 -40 16 -56 55 -56 17 0 36 5
43 12 28 28 1 109 -36 107 -9 0 -27 -7 -39 -16z m42 -43 c3 -5 -1 -10 -9 -10
-9 0 -16 5 -16 10 0 6 4 10 9 10 6 0 13 -4 16 -10z"/>
<path d="M2471 1524 c-127 -128 -180 -174 -197 -174 -26 0 -64 -32 -64 -54 0
-24 41 -66 64 -66 28 0 56 29 56 58 0 15 36 57 112 130 61 59 139 135 174 170
l62 62 94 0 93 0 113 -113 c69 -70 112 -120 112 -133 0 -66 86 -79 108 -16 13
37 -8 72 -41 72 -15 0 -61 39 -142 120 l-120 120 -125 -1 -125 -2 -174 -173z
m689 -125 c0 -5 -7 -9 -15 -9 -15 0 -20 12 -9 23 8 8 24 -1 24 -14z m-880
-114 c0 -8 -7 -15 -15 -15 -8 0 -15 7 -15 15 0 8 7 15 15 15 8 0 15 -7 15 -15z"/>
<path d="M3060 1611 c-15 -30 -12 -56 9 -75 46 -42 119 11 93 68 -10 22 -18
26 -51 26 -30 0 -43 -5 -51 -19z m60 -36 c0 -8 -4 -15 -9 -15 -5 0 -11 7 -15
15 -3 9 0 15 9 15 8 0 15 -7 15 -15z"/>
<path d="M2729 1552 c-9 -4 -101 -89 -204 -189 -158 -154 -192 -183 -217 -183
-25 0 -61 -31 -239 -207 -167 -166 -216 -209 -240 -211 -41 -4 -289 -243 -289
-278 0 -12 4 -26 10 -29 5 -3 68 51 138 120 104 101 135 125 157 125 24 0 64
35 240 210 174 174 215 210 239 210 23 0 64 35 223 188 155 149 201 188 226
190 28 3 40 -6 119 -90 52 -56 88 -101 88 -114 0 -26 30 -54 56 -54 26 0 64
36 64 60 0 26 -35 60 -61 60 -12 0 -41 22 -70 55 -108 117 -186 162 -240 137z
m319 -261 c3 -8 -1 -12 -9 -9 -7 2 -15 10 -17 17 -3 8 1 12 9 9 7 -2 15 -10
17 -17z"/>
<path d="M2133 1358 c-17 -6 -59 -39 -93 -74 -34 -35 -69 -64 -77 -64 -8 0
-27 7 -43 16 -35 21 -77 12 -92 -21 -13 -30 -6 -49 27 -71 24 -15 28 -16 58
-1 18 9 45 19 62 22 19 4 64 40 130 106 101 100 105 111 28 87z m-245 -169
c-2 -6 -8 -10 -13 -10 -5 0 -11 4 -13 10 -2 6 4 11 13 11 9 0 15 -5 13 -11z"/>
<path d="M2600 1224 c-120 -119 -152 -146 -187 -155 -23 -6 -49 -20 -59 -30
-9 -10 -25 -19 -35 -19 -10 0 -30 -10 -45 -23 -23 -21 -26 -27 -17 -53 7 -20
19 -31 42 -38 39 -11 61 6 76 62 9 33 15 38 47 42 30 4 56 23 140 105 57 56
127 123 156 150 l53 48 49 -48 c30 -30 52 -61 57 -83 7 -28 15 -37 37 -43 36
-10 64 4 72 36 8 32 -19 75 -48 75 -12 0 -47 25 -84 60 -40 39 -70 60 -86 60
-16 -1 -65 -43 -168 -146z m340 -29 c0 -8 -4 -15 -9 -15 -13 0 -22 16 -14 24
11 11 23 6 23 -9z m-610 -236 c0 -5 -7 -9 -15 -9 -15 0 -20 12 -9 23 8 8 24
-1 24 -14z"/>
<path d="M3061 1228 c-75 -73 -139 -139 -144 -145 -4 -7 -17 -18 -28 -23 -18
-10 -19 -9 -13 15 8 34 -17 71 -55 79 -93 19 -57 45 -421 -308 -257 -251 -340
-326 -360 -326 -18 -1 -55 -30 -132 -103 -98 -93 -108 -106 -108 -138 0 -28 9
-47 40 -82 28 -31 38 -51 34 -64 -3 -10 -34 -44 -67 -75 l-62 -58 40 0 c36 0
47 6 98 58 33 33 57 66 57 78 0 19 -24 57 -57 92 -38 39 -35 45 58 145 76 81
96 97 121 97 26 0 74 42 355 318 179 174 330 317 336 317 6 0 11 -11 12 -24 2
-31 33 -53 68 -48 l27 4 -26 -28 -27 -28 -39 34 c-21 19 -40 35 -43 35 -14 0
-85 -75 -85 -89 0 -10 16 -36 36 -60 48 -56 37 -63 -19 -12 -24 23 -50 41 -57
41 -6 0 -62 -51 -123 -113 -317 -320 -485 -477 -511 -477 -43 0 -62 -62 -28
-93 40 -36 92 -13 92 41 0 21 554 572 575 572 6 0 21 -13 33 -30 37 -49 56
-54 92 -24 56 48 57 61 10 109 -36 37 -39 43 -25 55 14 11 21 9 48 -18 18 -18
39 -32 46 -32 8 0 98 83 201 185 103 102 191 185 195 185 4 0 30 -20 56 -45
43 -40 53 -45 95 -45 l47 0 -27 -25 c-14 -13 -26 -31 -26 -40 0 -9 -9 -28 -20
-42 -20 -25 -20 -25 0 -53 26 -37 88 -90 103 -90 7 1 27 13 45 29 23 20 40 27
57 23 32 -6 33 13 2 52 l-24 29 -41 -33 c-41 -32 -42 -33 -62 -15 -27 25 -25
45 5 45 35 0 61 41 44 72 -6 13 -18 27 -25 31 -8 4 -14 14 -14 21 0 20 -34 46
-60 46 -14 0 -45 21 -81 55 -32 30 -63 55 -70 55 -7 0 -73 -60 -148 -132z
m359 -93 c0 -8 -4 -15 -9 -15 -13 0 -22 16 -14 24 11 11 23 6 23 -9z m-590
-45 c0 -5 -4 -10 -10 -10 -5 0 -10 5 -10 10 0 6 5 10 10 10 6 0 10 -4 10 -10z
m-850 -805 c0 -8 -4 -15 -10 -15 -5 0 -10 7 -10 15 0 8 5 15 10 15 6 0 10 -7
10 -15z"/>
<path d="M2968 1033 c-87 -86 -158 -163 -158 -170 0 -19 160 -187 181 -191 10
-2 63 45 143 129 69 73 126 136 126 141 0 14 -86 98 -101 98 -8 0 -44 -27 -81
-60 -36 -33 -72 -60 -80 -60 -50 0 -77 -70 -40 -103 38 -34 92 -6 92 48 0 12
22 39 54 67 53 47 54 47 72 27 18 -20 16 -22 -83 -121 l-101 -101 -60 64 -61
64 131 128 c72 70 134 127 138 127 4 0 53 -48 109 -107 l101 -107 -51 -52
c-31 -31 -64 -54 -82 -58 -41 -8 -57 -24 -57 -56 0 -57 75 -82 106 -35 8 13
13 29 9 35 -3 5 23 39 59 76 49 48 66 72 66 92 0 21 -27 56 -122 155 -68 70
-129 127 -137 127 -8 0 -86 -71 -173 -157z m32 -175 c0 -16 -3 -19 -11 -11 -6
6 -8 16 -5 22 11 17 16 13 16 -11z m230 -123 c0 -8 -4 -15 -9 -15 -13 0 -22
16 -14 24 11 11 23 6 23 -9z"/>
<path d="M1747 1112 c-28 -31 -22 -69 14 -88 30 -15 32 -15 55 7 30 28 32 74
5 89 -29 15 -56 12 -74 -8z m51 -40 c2 -7 -3 -12 -12 -12 -9 0 -16 7 -16 16 0
17 22 14 28 -4z"/>
<path d="M1655 995 c-14 -13 -25 -33 -25 -43 0 -12 -59 -77 -151 -166 -83 -81
-150 -149 -148 -151 2 -2 15 -6 29 -9 22 -5 44 12 169 134 116 113 149 140
172 140 22 0 27 -3 22 -17 -11 -28 -153 -163 -171 -163 -53 0 -74 -68 -32
-102 12 -10 30 -18 41 -18 21 0 49 36 49 63 0 27 137 165 168 169 14 2 34 15
45 31 l21 27 -21 28 c-11 15 -32 28 -46 30 -15 2 -27 8 -27 13 0 13 -46 59
-60 59 -6 0 -22 -11 -35 -25z m39 -46 c-3 -5 -10 -7 -15 -3 -5 3 -7 10 -3 15
3 5 10 7 15 3 5 -3 7 -10 3 -15z m106 -59 c0 -5 -7 -10 -15 -10 -8 0 -15 5
-15 10 0 6 7 10 15 10 8 0 15 -4 15 -10z m-230 -225 c0 -8 -7 -15 -15 -15 -8
0 -15 7 -15 15 0 8 7 15 15 15 8 0 15 -7 15 -15z"/>
<path d="M3541 905 c-22 -24 -41 -49 -41 -54 0 -19 62 -81 80 -81 28 0 33 30
10 55 -11 12 -20 26 -20 32 0 17 30 24 36 9 3 -8 12 -17 20 -20 23 -9 18 60
-6 84 -11 11 -24 20 -29 20 -5 0 -27 -20 -50 -45z"/>
<path d="M2106 915 c-38 -39 -26 -92 25 -102 20 -4 29 -11 29 -24 0 -27 35
-59 65 -59 17 0 29 9 41 31 21 41 6 77 -35 85 -21 5 -31 14 -36 33 -4 14 -11
32 -17 38 -14 18 -53 16 -72 -2z m44 -43 c0 -13 -12 -22 -22 -16 -10 6 -1 24
13 24 5 0 9 -4 9 -8z m80 -83 c0 -5 -7 -9 -15 -9 -15 0 -20 12 -9 23 8 8 24
-1 24 -14z"/>
<path d="M1296 878 c-9 -12 -16 -30 -16 -38 0 -9 -11 -27 -25 -40 -20 -19 -27
-21 -40 -10 -8 7 -15 25 -15 41 0 64 -93 77 -114 16 -13 -37 1 -59 45 -72 19
-5 46 -22 61 -37 36 -37 51 -35 89 12 23 29 40 40 59 40 33 0 53 21 53 55 0
14 -6 32 -13 40 -19 23 -66 19 -84 -7z m54 -33 c0 -8 -7 -15 -15 -15 -8 0 -15
7 -15 15 0 8 7 15 15 15 8 0 15 -7 15 -15z m-200 -21 c0 -17 -22 -14 -28 4 -2
7 3 12 12 12 9 0 16 -7 16 -16z"/>
<path d="M3412 777 c-46 -47 -49 -57 -26 -92 25 -38 62 -59 80 -44 20 16 18
25 -12 53 -26 23 -26 46 0 46 7 0 21 -9 31 -20 10 -11 24 -20 30 -20 19 0 27
30 13 49 -22 30 -62 71 -68 71 -3 0 -25 -19 -48 -43z"/>
<path d="M2583 769 c-27 -10 -40 -55 -24 -80 6 -10 11 -29 11 -41 0 -23 0 -23
-13 2 -26 51 -97 33 -97 -25 0 -50 21 -57 94 -30 52 20 64 29 83 66 13 23 23
52 23 64 0 36 -39 58 -77 44z m35 -51 c-6 -18 -28 -21 -28 -4 0 9 7 16 16 16
9 0 14 -5 12 -12z m-97 -93 c-1 -15 -24 -12 -29 3 -3 9 2 13 12 10 10 -1 17
-7 17 -13z"/>
<path d="M2018 744 c-19 -10 -28 -23 -28 -39 0 -28 -43 -65 -76 -65 -17 0 -69
-45 -184 -158 -129 -127 -160 -163 -160 -185 0 -15 6 -27 13 -27 7 0 84 72
172 160 137 138 164 160 191 160 20 0 39 9 54 25 13 14 34 25 46 25 52 0 75
74 32 104 -27 19 -26 19 -60 0z m42 -49 c0 -8 -7 -15 -15 -15 -8 0 -15 7 -15
15 0 8 7 15 15 15 8 0 15 -7 15 -15z"/>
<path d="M2812 734 c-12 -8 -22 -25 -22 -38 0 -12 -14 -35 -30 -51 l-30 -29
26 -14 c23 -12 28 -12 48 7 12 12 32 21 43 21 51 0 73 75 31 104 -12 9 -27 16
-33 16 -6 0 -21 -7 -33 -16z m43 -44 c3 -5 -1 -10 -9 -10 -9 0 -16 5 -16 10 0
6 4 10 9 10 6 0 13 -4 16 -10z"/>
<path d="M3072 674 c-12 -8 -22 -23 -22 -33 0 -28 36 -68 68 -74 19 -4 46 -26
77 -61 26 -31 55 -56 64 -56 18 0 101 72 101 87 0 5 -11 20 -25 33 -14 13 -25
27 -25 32 0 16 22 7 50 -20 26 -27 29 -27 48 -11 20 16 20 17 -28 64 -29 28
-55 46 -65 43 -10 -1 -32 -20 -48 -41 l-31 -37 29 -30 c26 -27 27 -32 14 -45
-14 -14 -20 -10 -62 35 -28 30 -47 60 -47 74 0 27 -29 56 -56 56 -11 0 -30 -7
-42 -16z m50 -46 c-12 -12 -35 -1 -27 12 3 5 13 6 21 3 10 -4 12 -9 6 -15z"/>
<path d="M2953 554 c-15 -23 -15 -29 -2 -52 8 -14 28 -29 44 -34 17 -4 52 -30
80 -58 49 -50 67 -58 94 -41 11 7 0 23 -48 72 -43 44 -61 71 -61 89 0 35 -17
50 -57 50 -24 0 -37 -7 -50 -26z m57 -30 c0 -8 -4 -12 -10 -9 -5 3 -10 10 -10
16 0 5 5 9 10 9 6 0 10 -7 10 -16z"/>
<path d="M838 520 c-9 -6 -19 -23 -23 -39 -3 -16 -15 -37 -25 -46 -15 -13 -17
-22 -9 -36 12 -23 32 -24 49 -4 7 8 23 15 36 15 29 0 64 36 64 66 0 24 -34 54
-60 54 -8 0 -23 -5 -32 -10z m42 -45 c0 -8 -7 -15 -15 -15 -16 0 -20 12 -8 23
11 12 23 8 23 -8z"/>
<path d="M656 507 c7 -19 64 -60 72 -52 14 13 -24 60 -51 63 -20 2 -25 0 -21
-11z"/>
<path d="M2297 492 c-23 -25 -21 -58 3 -82 25 -25 41 -25 70 -2 25 20 30 63
10 87 -17 21 -63 19 -83 -3z m51 -40 c2 -7 -3 -12 -12 -12 -9 0 -16 7 -16 16
0 17 22 14 28 -4z"/>
<path d="M2423 459 c-15 -15 -17 -48 -3 -69 14 -22 22 -6 18 40 -2 33 -5 39
-15 29z"/>
<path d="M2225 370 c-23 -25 -13 -64 21 -86 24 -16 27 -16 52 3 30 23 38 52
22 82 -14 28 -70 28 -95 1z m53 -31 c-2 -6 -8 -10 -13 -10 -5 0 -11 4 -13 10
-2 6 4 11 13 11 9 0 15 -5 13 -11z"/>
<path d="M2112 314 c-42 -29 -18 -104 34 -104 51 0 80 64 45 99 -25 25 -49 27
-79 5z m48 -45 c0 -5 -7 -9 -15 -9 -15 0 -20 12 -9 23 8 8 24 -1 24 -14z"/>
<path d="M2245 220 c-27 -27 -57 -50 -68 -50 -30 0 -69 -47 -62 -73 21 -70
115 -55 115 19 0 13 19 39 46 63 40 38 50 42 86 39 38 -2 42 0 49 25 l7 27
-62 0 c-61 0 -62 -1 -111 -50z m-61 -115 c-4 -8 -10 -15 -14 -15 -4 0 -10 7
-14 15 -4 10 1 15 14 15 13 0 18 -5 14 -15z"/>
<path d="M1597 233 c-4 -3 -7 -28 -7 -55 0 -41 3 -48 19 -48 11 0 26 -2 33 -5
9 -4 21 7 33 29 18 32 18 36 2 60 -17 25 -63 36 -80 19z m38 -51 c0 -18 -20
-15 -23 4 -3 10 1 15 10 12 7 -3 13 -10 13 -16z"/>
<path d="M1737 182 c-10 -10 -17 -27 -17 -37 0 -10 -21 -38 -46 -62 -44 -43
-45 -45 -28 -64 17 -19 18 -19 59 21 23 22 51 40 63 40 26 0 62 33 62 58 0 52
-60 80 -93 44z m42 -49 c-10 -11 -14 -11 -20 -1 -10 17 -2 28 17 21 11 -4 12
-8 3 -20z"/>
<path d="M2034 52 c-6 -4 -16 -17 -23 -29 -11 -21 -9 -23 13 -23 13 0 27 6 30
13 5 9 7 9 12 -1 8 -17 54 -15 54 2 0 34 -55 59 -86 38z"/>
<path d="M2165 20 c-18 -20 -17 -20 28 -20 49 0 60 12 28 30 -27 14 -35 13
-56 -10z"/>
<path d="M1900 10 c-12 -8 -9 -10 13 -10 16 0 26 4 22 10 -8 12 -16 12 -35 0z"/>
</g>
</svg>
